<?xml version="1.0" encoding="utf-8"?>
<!-- created with bpmn-js / http://bpmn.io -->
<!DOCTYPE svg PUBLIC "-//W3C//DTD SVG 1.1//EN" "http://www.w3.org/Graphics/SVG/1.1/DTD/svg11.dtd">
<svg xmlns="http://www.w3.org/2000/svg" xmlns:xlink="http://www.w3.org/1999/xlink" width="788" height="282" viewBox="136 74 788 282" version="1.1"><defs><marker id="sequenceflow-end-white-black-en3ib41gr7uxaynnfdu0uevh4" viewBox="0 0 20 20" refX="11" refY="10" markerWidth="10" markerHeight="10" orient="auto"><path d="M 1 5 L 11 10 L 1 15 Z" style="fill: black; stroke-width: 1px; stroke-linecap: round; stroke-dasharray: 10000, 1; stroke: black;"/></marker></defs><g class="djs-group"><g class="djs-element djs-connection" data-element-id="Flow_18z9flt" style="display: block;"><g class="djs-visual"><path d="m  820,200L882,200 " style="fill: none; stroke-width: 2px; stroke: black; stroke-linejoin: round; marker-end: url('#sequenceflow-end-white-black-en3ib41gr7uxaynnfdu0uevh4');"/></g><polyline points="820,200 882,200 " class="djs-hit djs-hit-stroke" style="fill: none; stroke-opacity: 0; stroke: white; stroke-width: 15px;"/><rect x="814" y="194" width="74" height="12" class="djs-outline" style="fill: none;"/></g></g><g class="djs-group"><g class="djs-element djs-connection" data-element-id="Flow_030be4a" style="display: block;"><g class="djs-visual"><path d="m  646,200L720,200 " style="fill: none; stroke-width: 2px; stroke: black; stroke-linejoin: round; marker-end: url('#sequenceflow-end-white-black-en3ib41gr7uxaynnfdu0uevh4');"/></g><polyline points="646,200 720,200 " class="djs-hit djs-hit-stroke" style="fill: none; stroke-opacity: 0; stroke: white; stroke-width: 15px;"/><rect x="640" y="194" width="86" height="12" class="djs-outline" style="fill: none;"/></g></g><g class="djs-group"><g class="djs-element djs-connection" data-element-id="Flow_0ptk187" style="display: block;"><g class="djs-visual"><path d="m  530,120L621,120 L621,175 " style="fill: none; stroke-width: 2px; stroke: black; stroke-linejoin: round; marker-end: url('#sequenceflow-end-white-black-en3ib41gr7uxaynnfdu0uevh4');"/></g><polyline points="530,120 621,120 621,175 " class="djs-hit djs-hit-stroke" style="fill: none; stroke-opacity: 0; stroke: white; stroke-width: 15px;"/><rect x="524" y="114" width="103" height="67" class="djs-outline" style="fill: none;"/></g></g><g class="djs-group"><g class="djs-element djs-connection" data-element-id="Flow_1wkgdsw" style="display: block;"><g class="djs-visual"><path d="m  300,235L300,310 L430,310 " style="fill: none; stroke-width: 2px; stroke: black; stroke-linejoin: round; marker-end: url('#sequenceflow-end-white-black-en3ib41gr7uxaynnfdu0uevh4');"/></g><polyline points="300,235 300,310 430,310 " class="djs-hit djs-hit-stroke" style="fill: none; stroke-opacity: 0; stroke: white; stroke-width: 15px;"/><rect x="294" y="229" width="142" height="87" class="djs-outline" style="fill: none;"/></g></g><g class="djs-group"><g class="djs-element djs-connection" data-element-id="Flow_0g8o19t" style="display: block;"><g class="djs-visual"><path d="m  300,185L300,120 L430,120 " style="fill: none; stroke-width: 2px; stroke: black; stroke-linejoin: round; marker-end: url('#sequenceflow-end-white-black-en3ib41gr7uxaynnfdu0uevh4');"/></g><polyline points="300,185 300,120 430,120 " class="djs-hit djs-hit-stroke" style="fill: none; stroke-opacity: 0; stroke: white; stroke-width: 15px;"/><rect x="294" y="114" width="142" height="77" class="djs-outline" style="fill: none;"/></g></g><g class="djs-group"><g class="djs-element djs-connection" data-element-id="Flow_06rbgiv" style="display: block;"><g class="djs-visual"><path d="m  198,210L275,210 " style="fill: none; stroke-width: 2px; stroke: black; stroke-linejoin: round; marker-end: url('#sequenceflow-end-white-black-en3ib41gr7uxaynnfdu0uevh4');"/></g><polyline points="198,210 275,210 " class="djs-hit djs-hit-stroke" style="fill: none; stroke-opacity: 0; stroke: white; stroke-width: 15px;"/><rect x="192" y="204" width="89" height="12" class="djs-outline" style="fill: none;"/></g></g><g class="djs-group"><g class="djs-element djs-connection" data-element-id="Flow_03skxmx" style="display: block;"><g class="djs-visual"><path d="m  530,310L621,310 L621,225 " style="fill: none; stroke-width: 2px; stroke: black; stroke-linejoin: round; marker-end: url('#sequenceflow-end-white-black-en3ib41gr7uxaynnfdu0uevh4');"/></g><polyline points="530,310 621,310 621,225 " class="djs-hit djs-hit-stroke" style="fill: none; stroke-opacity: 0; stroke: white; stroke-width: 15px;"/><rect x="524" y="219" width="103" height="97" class="djs-outline" style="fill: none;"/></g></g><g class="djs-group"><g class="djs-element djs-shape" data-element-id="StartEvent_1" style="display: block;" transform="matrix(1 0 0 1 162 192)"><g class="djs-visual"><circle cx="18" cy="18" r="18" style="stroke: black; stroke-width: 2px; fill: white; fill-opacity: 0.95;"/></g><rect class="djs-hit djs-hit-all" x="0" y="0" width="36" height="36" style="fill: none; stroke-opacity: 0; stroke: white; stroke-width: 15px;"/><rect x="-6" y="-6" width="48" height="48" class="djs-outline" style="fill: none;"/></g></g><g class="djs-group"><g class="djs-element djs-shape" data-element-id="StartEvent_1_label" style="display: block;" transform="matrix(1 0 0 1 142 235)"><g class="djs-visual"><text lineHeight="1.2" class="djs-label" style="font-family: Arial, sans-serif; font-size: 11px; font-weight: normal; fill: black;"><tspan x="0" y="9.899999999999999">Order Received</tspan></text></g><rect class="djs-hit djs-hit-all" x="0" y="0" width="77" height="14" style="fill: none; stroke-opacity: 0; stroke: white; stroke-width: 15px;"/><rect x="-6" y="-6" width="89" height="26" class="djs-outline" style="fill: none;"/></g></g><g class="djs-group"><g class="djs-element djs-shape" data-element-id="existingEmbeddedProcess" style="display: block;" transform="matrix(1 0 0 1 430 80)"><g class="djs-visual"><rect x="0" y="0" width="100" height="80" rx="10" ry="10" style="stroke: black; stroke-width: 2px; fill: white; fill-opacity: 0.95;"/><text lineHeight="1.2" class="djs-label" style="font-family: Arial, sans-serif; font-size: 12px; font-weight: normal; fill: black;"><tspan x="7.3125" y="43.599999999999994">Prepare Articles</tspan></text><rect x="0" y="0" width="14" height="14" rx="0" ry="0" style="stroke: black; stroke-width: 1px; fill: white;" transform="matrix(1 0 0 1 42.5 60)"/><path d="m42.5,60 m 7,2 l 0,10 m -5,-5 l 10,0" data-marker="sub-process" style="fill: white; stroke-width: 2px; stroke: black;"/></g><rect x="-6" y="-6" width="112" height="92" class="djs-outline" style="fill: none;"/><rect class="djs-hit djs-hit-all" x="0" y="0" width="100" height="80" style="fill: none; stroke-opacity: 0; stroke: white; stroke-width: 15px;"/></g></g><g class="djs-group"><g class="djs-element djs-shape" data-element-id="Event_14ujloj" style="display: block;" transform="matrix(1 0 0 1 882 182)"><g class="djs-visual"><circle cx="18" cy="18" r="18" style="stroke: black; stroke-width: 4px; fill: white; fill-opacity: 0.95;"/></g><rect class="djs-hit djs-hit-all" x="0" y="0" width="36" height="36" style="fill: none; stroke-opacity: 0; stroke: white; stroke-width: 15px;"/><rect x="-6" y="-6" width="48" height="48" class="djs-outline" style="fill: none;"/></g></g><g class="djs-group"><g class="djs-element djs-shape" data-element-id="procurePayment" style="display: block;" transform="matrix(1 0 0 1 430 270)"><g class="djs-visual"><rect x="0" y="0" width="100" height="80" rx="10" ry="10" style="stroke: black; stroke-width: 2px; fill: white; fill-opacity: 0.95;"/><text lineHeight="1.2" class="djs-label" style="font-family: Arial, sans-serif; font-size: 12px; font-weight: normal; fill: black;"><tspan x="28.828125" y="36.4">Procure </tspan><tspan x="25.984375" y="50.8">Payment</tspan></text><rect x="0" y="0" width="14" height="14" rx="0" ry="0" style="stroke: black; stroke-width: 1px; fill: white;" transform="matrix(1 0 0 1 42.5 60)"/><path d="m42.5,60 m 7,2 l 0,10 m -5,-5 l 10,0" data-marker="sub-process" style="fill: white; stroke-width: 2px; stroke: black;"/></g><rect x="-6" y="-6" width="112" height="92" class="djs-outline" style="fill: none;"/><rect class="djs-hit djs-hit-all" x="0" y="0" width="100" height="80" style="fill: none; stroke-opacity: 0; stroke: white; stroke-width: 15px;"/></g></g><g class="djs-group"><g class="djs-element djs-shape" data-element-id="Gateway_0p747t0" style="display: block;" transform="matrix(1 0 0 1 275 185)"><g class="djs-visual"><polygon points="25,0 50,25 25,50 0,25" style="stroke: black; stroke-width: 2px; fill: white; fill-opacity: 0.95;"/><path d="m 23,10 0,12.5 -12.5,0 0,5 12.5,0 0,12.5 5,0 0,-12.5 12.5,0 0,-5 -12.5,0 0,-12.5 -5,0 z" style="fill: black; stroke-width: 1px; stroke: black;"/></g><rect class="djs-hit djs-hit-all" x="0" y="0" width="50" height="50" style="fill: none; stroke-opacity: 0; stroke: white; stroke-width: 15px;"/><rect x="-6" y="-6" width="62" height="62" class="djs-outline" style="fill: none;"/></g></g><g class="djs-group"><g class="djs-element djs-shape" data-element-id="Gateway_032gabj" style="display: block;" transform="matrix(1 0 0 1 596 175)"><g class="djs-visual"><polygon points="25,0 50,25 25,50 0,25" style="stroke: black; stroke-width: 2px; fill: white; fill-opacity: 0.95;"/><path d="m 23,10 0,12.5 -12.5,0 0,5 12.5,0 0,12.5 5,0 0,-12.5 12.5,0 0,-5 -12.5,0 0,-12.5 -5,0 z" style="fill: black; stroke-width: 1px; stroke: black;"/></g><rect class="djs-hit djs-hit-all" x="0" y="0" width="50" height="50" style="fill: none; stroke-opacity: 0; stroke: white; stroke-width: 15px;"/><rect x="-6" y="-6" width="62" height="62" class="djs-outline" style="fill: none;"/></g></g><g class="djs-group"><g class="djs-element djs-shape" data-element-id="Activity_1b7wgec" style="display: block;" transform="matrix(1 0 0 1 720 160)"><g class="djs-visual"><rect x="0" y="0" width="100" height="80" rx="10" ry="10" style="stroke: black; stroke-width: 2px; fill: white; fill-opacity: 0.95;"/><text lineHeight="1.2" class="djs-label" style="font-family: Arial, sans-serif; font-size: 12px; font-weight: normal; fill: black;"><tspan x="21.6484375" y="36.4">Ship Items </tspan><tspan x="34.3203125" y="50.8">(todo)</tspan></text><rect x="0" y="0" width="14" height="14" rx="0" ry="0" style="stroke: black; stroke-width: 1px; fill: white;" transform="matrix(1 0 0 1 42.5 60)"/><path d="m42.5,60 m 7,2 l 0,10 m -5,-5 l 10,0" data-marker="sub-process" style="fill: white; stroke-width: 2px; stroke: black;"/></g><rect class="djs-hit djs-hit-all" x="0" y="0" width="100" height="80" style="fill: none; stroke-opacity: 0; stroke: white; stroke-width: 15px;"/><rect x="-6" y="-6" width="112" height="92" class="djs-outline" style="fill: none;"/></g></g></svg>